<svg width="137" height="29" viewBox="0 0 137 29" fill="none" xmlns="http://www.w3.org/2000/svg">
<path d="M25.64 -1.90735e-06V28H21.36L5.92 9.04V28H0.76V-1.90735e-06H5.04L20.48 18.96V-1.90735e-06H25.64ZM40.8228 6.4C43.9695 6.4 46.3695 7.16 48.0228 8.68C49.7028 10.1733 50.5428 12.44 50.5428 15.48V28H45.8228V25.4C45.2095 26.3333 44.3295 27.0533 43.1828 27.56C42.0628 28.04 40.7028 28.28 39.1028 28.28C37.5028 28.28 36.1028 28.0133 34.9028 27.48C33.7028 26.92 32.7695 26.16 32.1028 25.2C31.4628 24.2133 31.1428 23.1067 31.1428 21.88C31.1428 19.96 31.8495 18.4267 33.2628 17.28C34.7028 16.1067 36.9561 15.52 40.0228 15.52H45.5428V15.2C45.5428 13.7067 45.0895 12.56 44.1828 11.76C43.3028 10.96 41.9828 10.56 40.2228 10.56C39.0228 10.56 37.8361 10.7467 36.6628 11.12C35.5161 11.4933 34.5428 12.0133 33.7428 12.68L31.7828 9.04C32.9028 8.18667 34.2495 7.53333 35.8228 7.08C37.3961 6.62667 39.0628 6.4 40.8228 6.4ZM40.1428 24.64C41.3961 24.64 42.5028 24.36 43.4628 23.8C44.4495 23.2133 45.1428 22.3867 45.5428 21.32V18.84H40.3828C37.5028 18.84 36.0628 19.7867 36.0628 21.68C36.0628 22.5867 36.4228 23.3067 37.1428 23.84C37.8628 24.3733 38.8628 24.64 40.1428 24.64ZM76.5691 6.64L67.4091 28H62.2491L53.0891 6.64H58.2891L64.9291 22.48L71.7691 6.64H76.5691ZM99.1881 17.44C99.1881 17.7867 99.1615 18.28 99.1081 18.92H82.3481C82.6415 20.4933 83.4015 21.7467 84.6281 22.68C85.8815 23.5867 87.4281 24.04 89.2681 24.04C91.6148 24.04 93.5481 23.2667 95.0681 21.72L97.7481 24.8C96.7881 25.9467 95.5748 26.8133 94.1081 27.4C92.6415 27.9867 90.9881 28.28 89.1481 28.28C86.8015 28.28 84.7348 27.8133 82.9481 26.88C81.1615 25.9467 79.7748 24.6533 78.7881 23C77.8281 21.32 77.3481 19.4267 77.3481 17.32C77.3481 15.24 77.8148 13.3733 78.7481 11.72C79.7081 10.04 81.0281 8.73333 82.7081 7.8C84.3881 6.86667 86.2815 6.4 88.3881 6.4C90.4681 6.4 92.3215 6.86667 93.9481 7.8C95.6015 8.70667 96.8815 10 97.7881 11.68C98.7215 13.3333 99.1881 15.2533 99.1881 17.44ZM88.3881 10.4C86.7881 10.4 85.4281 10.88 84.3081 11.84C83.2148 12.7733 82.5481 14.0267 82.3081 15.6H94.4281C94.2148 14.0533 93.5615 12.8 92.4681 11.84C91.3748 10.88 90.0148 10.4 88.3881 10.4ZM108.751 9.76C110.191 7.52 112.724 6.4 116.351 6.4V11.16C115.924 11.08 115.538 11.04 115.191 11.04C113.244 11.04 111.724 11.6133 110.631 12.76C109.538 13.88 108.991 15.5067 108.991 17.64V28H103.991V6.64H108.751V9.76ZM127.271 28.28C125.537 28.28 123.844 28.0533 122.191 27.6C120.537 27.1467 119.217 26.5733 118.231 25.88L120.151 22.08C121.111 22.72 122.257 23.24 123.591 23.64C124.951 24.0133 126.284 24.2 127.591 24.2C130.577 24.2 132.071 23.4133 132.071 21.84C132.071 21.0933 131.684 20.5733 130.911 20.28C130.164 19.9867 128.951 19.7067 127.271 19.44C125.511 19.1733 124.071 18.8667 122.951 18.52C121.857 18.1733 120.897 17.5733 120.071 16.72C119.271 15.84 118.871 14.6267 118.871 13.08C118.871 11.0533 119.711 9.44 121.391 8.24C123.097 7.01333 125.391 6.4 128.271 6.4C129.737 6.4 131.204 6.57333 132.671 6.92C134.137 7.24 135.337 7.68 136.271 8.24L134.351 12.04C132.537 10.9733 130.497 10.44 128.231 10.44C126.764 10.44 125.644 10.6667 124.871 11.12C124.124 11.5467 123.751 12.12 123.751 12.84C123.751 13.64 124.151 14.2133 124.951 14.56C125.777 14.88 127.044 15.1867 128.751 15.48C130.457 15.7467 131.857 16.0533 132.951 16.4C134.044 16.7467 134.977 17.3333 135.751 18.16C136.551 18.9867 136.951 20.16 136.951 21.68C136.951 23.68 136.084 25.28 134.351 26.48C132.617 27.68 130.257 28.28 127.271 28.28Z" fill="currentColor"/>
</svg>
